<svg width="20" height="12" viewBox="0 0 20 12" fill="none" xmlns="http://www.w3.org/2000/svg">
<path fill-rule="evenodd" clip-rule="evenodd" d="M10.0002 2.17926C8.1592 2.17926 6.66675 3.67154 6.66675 5.51239C6.66675 7.35324 8.15914 8.84581 10.0002 8.84581C11.8412 8.84581 13.3336 7.35341 13.3336 5.51239C13.3336 3.67137 11.8412 2.17926 10.0002 2.17926ZM8.33354 5.51239C8.33354 4.59197 9.07963 3.84577 10.0002 3.84577C10.9207 3.84577 11.6668 4.59197 11.6668 5.51239C11.6668 6.43293 10.9207 7.17913 10.0002 7.17913C9.07963 7.17913 8.33354 6.43293 8.33354 5.51239Z" fill="black"/>
<path fill-rule="evenodd" clip-rule="evenodd" d="M18.2495 3.41699C13.6936 -1.139 6.30673 -1.139 1.75046 3.41699L0.244092 4.92335C-0.081364 5.24881 -0.081364 5.77635 0.244092 6.10181L1.75046 7.60817C6.30644 12.1642 13.6936 12.1642 18.2495 7.60817L19.7559 6.10181C20.0814 5.77635 20.0814 5.24881 19.7559 4.92335L18.2495 3.41699ZM2.92903 4.59544C6.83415 0.690312 13.1658 0.690312 17.0713 4.59544L17.9883 5.51252L17.0713 6.42961C13.1661 10.3347 6.83444 10.3347 2.92903 6.42961L2.01194 5.51252L2.92903 4.59544Z" fill="black"/>
</svg>
